<?xml version="1.0" encoding="UTF-8"?>
<svg width="23px" height="17px" viewBox="0 0 23 17" version="1.1" xmlns="http://www.w3.org/2000/svg" xmlns:xlink="http://www.w3.org/1999/xlink">
    <title>base/icon/arrow-right</title>
    <g id="base/icon/arrow-right" stroke="none" stroke-width="1" fill="none" fill-rule="evenodd">
        <path d="M15.3127025,0.737159409 L15.3999233,0.814865773 L22.3779508,7.79289322 C22.418243,7.83318541 22.454378,7.87606051 22.486356,7.92098553 C22.4992456,7.93923388 22.5117357,7.95810088 22.5235889,7.97740109 C22.5319609,7.99087482 22.5398339,8.0044146 22.5473626,8.01809326 C22.559312,8.03990947 22.5707343,8.06261652 22.5812973,8.08579764 C22.5863257,8.0967928 22.5910895,8.10779705 22.5956462,8.1188665 C22.6048789,8.14123745 22.6133393,8.16406925 22.6209731,8.18727624 C22.6263894,8.20395775 22.6313842,8.22064802 22.6359343,8.23743369 C22.6419345,8.25921388 22.647185,8.28154451 22.6516735,8.3041495 C22.654987,8.32125195 22.6579597,8.33857138 22.6604748,8.35594429 C22.6629445,8.37259175 22.6649221,8.38924375 22.6664855,8.40601599 C22.6687347,8.43041524 22.6701314,8.45489879 22.6706331,8.47939726 C22.6707704,8.48585604 22.670844,8.49291943 22.670844,8.5 L22.6704337,8.52873386 C22.6698035,8.55079217 22.6684476,8.57283361 22.6663659,8.59481929 L22.670844,8.5 C22.670844,8.54782744 22.6674864,8.59487067 22.660994,8.64090683 C22.6578223,8.66289909 22.6538996,8.68522132 22.6492161,8.70741513 C22.6446703,8.72935984 22.639394,8.75076081 22.6334414,8.77187834 C22.6295486,8.78541959 22.6254773,8.79879682 22.6211196,8.81210072 C22.6123222,8.83911733 22.6021969,8.86597713 22.5909786,8.8922587 C22.5873406,8.9008317 22.5833855,8.90976204 22.5792933,8.91864472 C22.5673407,8.94442745 22.5546312,8.96913363 22.5409507,8.99321613 C22.5350394,9.00380336 22.5285828,9.01470287 22.5219015,9.02550279 C22.5065693,9.05011169 22.4903014,9.07401189 22.4730567,9.09714106 C22.4673329,9.10492385 22.4615557,9.1124372 22.4556571,9.11988597 L22.3779508,9.20710678 L15.3999233,16.1851342 C15.009399,16.5756585 14.3762341,16.5756585 13.9857098,16.1851342 C13.6230801,15.8225045 13.597178,15.2506591 13.9080034,14.8581415 L13.9857098,14.7709207 L19.255156,9.49997255 L1.329156,9.5 C0.776871246,9.5 0.329155996,9.05228475 0.329155996,8.5 C0.329155996,7.98716416 0.715196186,7.56449284 1.21253487,7.50672773 L1.329156,7.5 L19.255156,7.49997255 L13.9857098,2.22907934 C13.6230801,1.86644964 13.597178,1.29460424 13.9080034,0.902086586 L13.9857098,0.814865773 C14.3483395,0.452236073 14.9201849,0.426333952 15.3127025,0.737159409 Z" id="Combined-Shape" fill="#000000"></path>
    </g>
</svg>