<svg xmlns="http://www.w3.org/2000/svg" width="70" height="70" viewBox="0 0 70 70">
    <g fill="none" fill-rule="evenodd">
        <circle cx="35" cy="35" r="35" fill="#000"/>
        <path fill="#FFF" d="M39.313 27.737l.087.078 6.978 6.978c.04.04.076.083.108.128l.038.056.023.041c.012.022.024.045.034.068l.015.033.025.068.015.05.016.067.008.052c.003.017.005.033.006.05.003.024.004.049.005.073v.05l-.005.066.005-.095c0 .048-.004.095-.01.14-.003.023-.007.045-.012.067-.004.022-.01.044-.016.065l-.012.04c-.009.027-.019.054-.03.08l-.012.027c-.012.025-.024.05-.038.074-.006.01-.012.022-.02.033-.014.024-.03.048-.048.071l-.017.023-.078.087-6.978 6.978c-.39.39-1.024.39-1.414 0-.363-.362-.389-.934-.078-1.327l.078-.087 5.27-5.271H25.328c-.552 0-1-.448-1-1 0-.513.386-.936.884-.993l.116-.007h17.926l-5.27-5.27c-.362-.364-.388-.935-.077-1.328l.078-.087c.362-.363.934-.389 1.327-.078z"/>
    </g>
</svg>
