<svg xmlns="http://www.w3.org/2000/svg" width="70" height="70" viewBox="0 0 70 70">
    <g fill="none" fill-rule="evenodd">
        <circle cx="35" cy="35" r="35" fill="#000"/>
        <path fill="#FFF" fill-rule="nonzero" d="M28.85 44.662l-.011-.004-.03-.012c-.03-.011-.058-.024-.086-.038l-.055-.029c-.02-.01-.038-.022-.057-.033l-.062-.042-.039-.03c-.044-.034-.081-.067-.118-.103l-5.526-5.527c-.488-.487-.488-1.278 0-1.766.45-.45 1.159-.485 1.649-.104l.117.104 4.643 4.643L45.368 25.63c.487-.488 1.278-.488 1.766 0 .45.45.485 1.159.104 1.649l-.104.118L30.16 44.37c-.07.07-.146.13-.226.18-.076.046-.155.084-.236.113-.195.07-.405.09-.608.059l-.03-.005-.098-.021-.02-.006.02.006c-.037-.01-.074-.021-.11-.035z"/>
    </g>
</svg>
