<svg xmlns="http://www.w3.org/2000/svg" width="70" height="70" viewBox="0 0 70 70">
    <g fill="none" fill-rule="evenodd">
        <circle cx="35" cy="35" r="35" fill="#000"/>
        <g stroke="#FFF" stroke-linecap="round" stroke-linejoin="round" stroke-width="1.5">
            <g>
                <path d="M18.298 2.044L18.298 11.912 8.429 11.912" transform="translate(24.5 18) translate(0 20) rotate(-45 13.364 6.978)"/>
                <path d="M20.342 6.978H4c-2.21 0-4-1.79-4-4V0h0" transform="translate(24.5 18) translate(0 20)"/>
            </g>
            <g>
                <path d="M18.298 2.044L18.298 11.912 8.429 11.912" transform="translate(24.5 18) rotate(-180 10.5 7) rotate(-45 13.364 6.978)"/>
                <path d="M20.342 6.978H4c-2.21 0-4-1.79-4-4V0h0" transform="translate(24.5 18) rotate(-180 10.5 7)"/>
            </g>
        </g>
    </g>
</svg>
