<svg xmlns="http://www.w3.org/2000/svg" width="47" height="47" viewBox="0 0 47 47">
    <g>
        <path d="M25.385 7.439c1.013-1.13 1.604-2.312 1.811-3.526C24.331 1.514 20.646 0 16.625 0c-2.076 0-4.056.402-5.888 1.105 3.067 3.072 5.632 6.71 7.638 10.638 2.956-1.07 5.42-2.531 7.01-4.304zM26.83 8.735c-1.781 1.984-4.427 3.598-7.589 4.77.393.862.755 1.742 1.094 2.633 1.624-.35 3.307-.548 5.023-.548 2.701 0 5.325.458 7.745 1.3.003-.11.017-.218.017-.33 0-4.272-1.646-8.157-4.32-11.09-.394 1.137-1.049 2.237-1.97 3.265zM.378 13.074c2.063.365 4.348.575 6.544.575 3.403 0 6.672-.483 9.585-1.313C14.5 8.48 11.92 4.93 8.838 1.96 4.646 4.215 1.411 8.295.378 13.074zM32.936 18.888c-2.34-.88-4.917-1.358-7.578-1.358-1.492 0-2.957.157-4.37.442 1.434 4.302 2.264 8.952 2.406 13.679 5.047-2.283 8.735-7.092 9.542-12.763zM0 16.56c0 5.103 2.46 9.736 6.111 12.764.387-2.573 1.547-5.105 3.437-7.224 2.248-2.52 5.368-4.408 8.9-5.485-.329-.848-.688-1.68-1.067-2.5-3.156.937-6.712 1.475-10.46 1.475-2.292 0-4.678-.22-6.841-.6-.05.518-.08 1.04-.08 1.57z" transform="translate(6.96 7.305)"/>
        <path d="M10.997 23.391c-1.909 2.14-2.943 4.652-3.076 7.22 2.53 1.58 5.507 2.509 8.704 2.509 1.68 0 3.302-.256 4.83-.725-.074-4.831-.885-9.582-2.36-13.954-3.227.968-6.067 2.673-8.098 4.95z" transform="translate(6.96 7.305)"/>
    </g>
</svg>
