<?xml version="1.0" encoding="UTF-8"?>
<svg width="23px" height="23px" viewBox="0 0 23 23" version="1.1" xmlns="http://www.w3.org/2000/svg" xmlns:xlink="http://www.w3.org/1999/xlink">
    <title>base/icon/dribbble</title>
    <g id="base/icon/dribbble" stroke="none" stroke-width="1" fill="none" fill-rule="evenodd">
        <g id="dribbble" fill="#000000" fill-rule="nonzero">
            <path d="M17.6285019,5.1656647 C18.332161,4.38146209 18.742424,3.56040952 18.8863144,2.71759797 C16.8965912,1.05145264 14.3370972,0 11.5449219,0 C10.1032104,0 8.7283554,0.27900698 7.45650481,0.767181396 C9.58625796,2.90097046 11.3673401,5.42747495 12.7604447,8.15472412 C14.8131637,7.4124603 16.5240555,6.3969803 17.6285019,5.1656647 Z" id="Path"></path>
            <path d="M18.6313477,6.06585693 C17.3951187,7.44369507 15.5575333,8.5642853 13.3621521,9.37866975 C13.6350174,9.97704314 13.8857727,10.5878753 14.121788,11.206604 C15.2492218,10.964096 16.417717,10.8261719 17.609375,10.8261719 C19.4853897,10.8261719 21.3078842,11.1444855 22.9884186,11.7295227 C22.9899979,11.6524887 23,11.5775604 23,11.5 C23,8.53357698 21.8569489,5.83563232 20.000412,3.79905698 C19.7264938,4.58834839 19.2718353,5.35219573 18.6313477,6.06585693 Z" id="Path"></path>
            <path d="M0.262687672,9.07930754 C1.69509888,9.33251953 3.28210449,9.47851562 4.80664062,9.47851562 C7.16995239,9.47851562 9.44008635,9.14300537 11.4633255,8.56674194 C10.0691681,5.88809968 8.27685547,3.42283628 6.13762664,1.3611679 C3.22630308,2.92694092 0.980033863,5.76017759 0.262687672,9.07930754 Z" id="Path"></path>
            <path d="M22.8722534,13.117012 C21.2466431,12.505127 19.457489,12.1738281 17.609375,12.1738281 C16.5733643,12.1738281 15.555954,12.2824478 14.5746917,12.4807358 C15.5708695,15.468216 16.1473083,18.6973267 16.2457504,21.9796066 C19.7503586,20.3941803 22.3121338,17.0546951 22.8722534,13.117012 L22.8722534,13.117012 Z" id="Path"></path>
            <path d="M0,11.5 C0,15.0439148 1.70825959,18.2612686 4.24388884,20.3639984 C4.51254272,18.5767746 5.31832886,16.8185043 6.63071443,15.346962 C8.19174958,13.5967636 10.3580017,12.2861328 12.8111572,11.5380783 C12.5828629,10.9491806 12.3335114,10.3718643 12.0702972,9.80261995 C9.87825014,10.4527588 7.40930176,10.8261719 4.80664062,10.8261719 C3.21437075,10.8261719 1.55735017,10.6740341 0.0552749746,10.4101181 C0.0212325938,10.7693176 0,11.1322021 0,11.5 Z" id="Path"></path>
            <path d="M7.63689421,16.2438202 C6.31117251,17.7304535 5.5929489,19.4739837 5.50082397,21.2576981 C7.25786589,22.35495 9.32514956,23 11.5449219,23 C12.7120133,23 13.8380432,22.8224182 14.8998489,22.4965592 C14.848259,19.1414566 14.2849808,15.8425064 13.2609024,12.8060684 C11.0191956,13.4783172 9.04737092,14.6622543 7.63689421,16.2438202 L7.63689421,16.2438202 Z" id="Path"></path>
        </g>
    </g>
</svg>