<?xml version="1.0" encoding="UTF-8"?>
<svg width="22px" height="22px" viewBox="0 0 22 22" version="1.1" xmlns="http://www.w3.org/2000/svg" xmlns:xlink="http://www.w3.org/1999/xlink">
    <title>base/icon/email</title>
    <g id="base/icon/email" stroke="none" stroke-width="1" fill="none" fill-rule="evenodd">
        <path d="M8.02083333,16.1443333 L8.02083333,20.3958333 C8.02083333,20.6928333 8.2115,20.9559167 8.49383333,21.0494167 C8.56441667,21.0723333 8.63683333,21.0833333 8.70833333,21.0833333 C8.92283333,21.0833333 9.13,20.9825 9.262,20.8028333 L11.7489167,17.4185 L8.02083333,16.1443333 Z" id="Path" fill="#000000" fill-rule="nonzero"></path>
        <path d="M21.71125,0.127416667 C21.5004167,-0.022 21.2235833,-0.0421666667 20.9944167,0.0779166667 L0.369416667,10.84875 C0.125583333,10.9761667 -0.0183333333,11.2365 0.00183333333,11.5105833 C0.0229166667,11.7855833 0.205333333,12.02025 0.46475,12.1091667 L6.1985,14.069 L18.4094167,3.62816667 L8.96041667,15.01225 L18.5698333,18.2966667 C18.6413333,18.3205 18.7165,18.3333333 18.7916667,18.3333333 C18.9163333,18.3333333 19.0400833,18.2994167 19.1491667,18.2334167 C19.3233333,18.1270833 19.4415833,17.9483333 19.4718333,17.7475833 L21.9926667,0.78925 C22.03025,0.532583333 21.9220833,0.27775 21.71125,0.127416667 Z" id="Path" fill="#000000" fill-rule="nonzero"></path>
    </g>
</svg>