<svg xmlns="http://www.w3.org/2000/svg" width="47" height="47" viewBox="0 0 47 47">
    <g>
        <path d="M11.55 23.248v6.122c0 .428.275.807.681.941.102.033.206.049.309.049.309 0 .607-.145.797-.404l3.581-4.873-5.368-1.835zM31.264.183c-.303-.215-.702-.244-1.032-.07l-29.7 15.51c-.351.183-.558.558-.53.952.031.396.294.734.667.862l8.257 2.822L26.51 5.225 12.903 21.618l13.838 4.73c.103.034.21.052.319.052.18 0 .358-.049.515-.144.25-.153.42-.41.464-.7l3.63-24.42c.055-.37-.101-.736-.405-.953z" transform="translate(7.2 8.025)"/>
    </g>
</svg>
