<?xml version="1.0" encoding="UTF-8"?>
<svg width="20px" height="20px" viewBox="0 0 20 20" version="1.1" xmlns="http://www.w3.org/2000/svg" xmlns:xlink="http://www.w3.org/1999/xlink">
    <title>Path</title>
    <g id="Symbols" stroke="none" stroke-width="1" fill="none" fill-rule="evenodd">
        <g id="base/icon/facebook-full" transform="translate(-6.000000, -6.000000)" fill="#000000">
            <path d="M24.3021127,6.57942796 L7.61448933,6.57942796 C7.04305885,6.57942796 6.57911907,7.04244109 6.57911907,7.61479821 L6.57911907,24.3024216 C6.57911907,24.8747787 7.04305885,25.3384096 7.61448933,25.3384096 L16.598612,25.3384096 L16.598612,18.0738293 L14.1541251,18.0738293 L14.1541251,15.2423141 L16.598612,15.2423141 L16.598612,13.1542762 C16.598612,10.7317198 18.0778448,9.41186986 20.2393964,9.41186986 C21.2756933,9.41186986 22.1643449,9.48939908 22.4234964,9.52306714 L22.4234964,12.0552764 L20.9241864,12.0558941 C19.7488928,12.0558941 19.5221739,12.6146605 19.5221739,13.4341227 L19.5221739,15.2413874 L22.3261988,15.2413874 L21.9595566,18.0725938 L19.5218651,18.0725938 L19.5218651,25.337483 L24.3018038,25.337483 C24.8738521,25.337483 25.3381007,24.8732343 25.3381007,24.3024216 L25.3381007,7.61418045 C25.3377918,7.04244109 24.874161,6.57942796 24.3021127,6.57942796 Z" id="Path"></path>
        </g>
    </g>
</svg>