<svg xmlns="http://www.w3.org/2000/svg" width="47" height="47" viewBox="0 0 47 47">
    <path fill="#212121" d="M23.44 7.35c-9.521 0-17.233 7.582-17.233 16.934 0 7.484 4.937 13.83 11.783 16.067.862.16 1.178-.364 1.178-.814 0-.402-.015-1.468-.022-2.88-4.794 1.022-5.805-2.271-5.805-2.271-.784-1.955-1.917-2.477-1.917-2.477-1.56-1.05.12-1.029.12-1.029 1.731.118 2.64 1.745 2.64 1.745 1.537 2.59 4.034 1.841 5.02 1.409.155-1.096.598-1.841 1.09-2.265-3.826-.423-7.849-1.88-7.849-8.368 0-1.848.668-3.359 1.774-4.544-.194-.428-.776-2.15.15-4.482 0 0 1.444-.454 4.74 1.737 1.378-.377 2.843-.563 4.308-.572 1.465.009 2.93.195 4.308.572 3.275-2.19 4.718-1.737 4.718-1.737.926 2.332.345 4.054.172 4.482 1.099 1.185 1.767 2.696 1.767 4.544 0 6.506-4.029 7.937-7.863 8.354.603.508 1.163 1.547 1.163 3.133 0 2.267-.021 4.088-.021 4.638 0 .443.301.973 1.184.804 6.895-2.223 11.828-8.574 11.828-16.046 0-9.352-7.716-16.934-17.233-16.934z"/>
</svg>
