<?xml version="1.0" encoding="UTF-8"?>
<svg width="24px" height="24px" viewBox="0 0 24 24" version="1.1" xmlns="http://www.w3.org/2000/svg" xmlns:xlink="http://www.w3.org/1999/xlink">
    <title>base/icon/github</title>
    <g id="base/icon/github" stroke="none" stroke-width="1" fill="none" fill-rule="evenodd">
        <g id="github" fill="#000000" fill-rule="nonzero">
            <path d="M11.9674797,0.0325203252 C5.35544715,0.0325203252 0,5.52715447 0,12.3038699 C0,17.7266992 3.42868293,22.3253333 8.18276423,23.9466667 C8.78113821,24.0621789 9.00054201,23.6823415 9.00054201,23.3566179 C9.00054201,23.0652358 8.99056911,22.2930732 8.98558266,21.2701138 C5.65662873,22.0100163 4.95453659,19.6238049 4.95453659,19.6238049 C4.41001626,18.2074797 3.62315447,17.8286829 3.62315447,17.8286829 C2.53910027,17.0679675 3.70692683,17.0835772 3.70692683,17.0835772 C4.90866125,17.1689106 5.5399458,18.3479675 5.5399458,18.3479675 C6.60704607,20.2242602 8.34133333,19.6820813 9.02547425,19.3688455 C9.13318157,18.5748293 9.44134417,18.0347317 9.78341463,17.7277398 C7.12563686,17.420748 4.33222764,16.3655285 4.33222764,11.6638699 C4.33222764,10.3245528 4.79596748,9.22978862 5.56388076,8.37125203 C5.42924661,8.06113821 5.02534417,6.81339837 5.66859621,5.12338211 C5.66859621,5.12338211 6.67087263,4.79453659 8.95965312,6.38152846 C9.91705149,6.10887805 10.9342873,5.9735935 11.951523,5.96734959 C12.9687588,5.9735935 13.9859946,6.10887805 14.943393,6.38152846 C17.2172141,4.79453659 18.2194905,5.12338211 18.2194905,5.12338211 C18.8627425,6.81339837 18.4588401,8.06113821 18.3391653,8.37125203 C19.1020921,9.22978862 19.565832,10.3245528 19.565832,11.6638699 C19.565832,16.3780163 16.7684336,17.4155447 14.1056694,17.7173333 C14.5245312,18.0857236 14.9134743,18.8381138 14.9134743,19.9880325 C14.9134743,21.6301789 14.8985149,22.9497236 14.8985149,23.3482927 C14.8985149,23.6698537 15.1079458,24.0538537 15.7212791,23.9310569 C20.5092683,22.3201301 23.9349593,17.718374 23.9349593,12.3038699 C23.9349593,5.52715447 18.5765203,0.0325203252 11.9674797,0.0325203252 L11.9674797,0.0325203252 Z" id="Path"></path>
        </g>
    </g>
</svg>