<?xml version="1.0" encoding="UTF-8"?>
<svg width="22px" height="22px" viewBox="0 0 22 22" version="1.1" xmlns="http://www.w3.org/2000/svg" xmlns:xlink="http://www.w3.org/1999/xlink">
    <title>Combined Shape</title>
    <g id="Symbols" stroke="none" stroke-width="1" fill="none" fill-rule="evenodd">
        <g id="base/icon/instagram" transform="translate(-5.000000, -5.000000)" fill="#000000">
            <path d="M16.5706607,5.50019889 C18.8977294,5.50196781 19.2791827,5.51611613 20.3207922,5.56556102 C21.4342105,5.61465185 22.195678,5.79470487 22.8628016,6.05263158 C23.558708,6.31455594 24.1932109,6.72807018 24.7172195,7.26023392 C25.2535407,7.7842425 25.6628975,8.41458791 25.9289793,9.11864951 C26.186906,9.78193529 26.3669591,10.5474004 26.4160499,11.6608187 C26.4581278,12.6187409 26.4671934,13.0172175 26.4689248,14.9031405 L26.4688441,16.8122883 C26.4662376,18.9096117 26.4517258,19.3004101 26.4078947,20.2982456 C26.3588039,21.4116639 26.178591,22.1731314 25.9208242,22.8404148 C25.3763478,24.248538 24.2629294,25.3619563 22.8546464,25.9064327 C22.1915205,26.1643595 21.4260554,26.3444125 20.312637,26.3935033 C19.3601576,26.4354783 18.9607844,26.4505066 17.102318,26.4540308 L15.1611625,26.4544576 C13.0638135,26.4518768 12.672903,26.4374771 11.6752101,26.3935033 C10.561632,26.3444125 9.80032437,26.1643595 9.13304094,25.9064327 C8.4371345,25.6445084 7.80263158,25.2309942 7.278623,24.6988304 C6.74645926,24.1748218 6.33310488,23.5444764 6.06702301,22.8404148 C5.8090963,22.177129 5.62888343,21.4116639 5.57979259,20.2982456 C5.53420824,19.2604966 5.52033568,18.8793191 5.51858646,16.5522701 L5.51858797,15.4067927 C5.52035689,13.079724 5.53450521,12.6982707 5.5839501,11.6566612 C5.63304094,10.5432429 5.81309395,9.78193529 6.07102066,9.11465185 C6.33310488,8.41874542 6.74645926,7.7842425 7.278623,7.26023392 C7.80263158,6.72391267 8.43297699,6.31455594 9.13719844,6.04847407 C9.80032437,5.79070722 10.5657895,5.61049435 11.6792078,5.56140351 C12.7169568,5.51581916 13.0981343,5.5019466 15.4251833,5.50019738 L16.5706607,5.50019889 Z M15.9979212,10.5964912 C13.0260873,10.5964912 10.6148803,13.0075384 10.6148803,15.9795322 C10.6148803,18.9515259 13.0260873,21.3625731 15.9979212,21.3625731 C18.969915,21.3625731 21.3809622,18.9515259 21.3809622,15.9795322 C21.3809622,13.0075384 18.969915,10.5964912 15.9979212,10.5964912 Z M15.9979212,12.4876873 C17.9260554,12.4876873 19.4897661,14.051398 19.4897661,15.9795322 C19.4897661,17.9076663 17.9260554,19.471377 15.9979212,19.471377 C14.069947,19.471377 12.5060764,17.9076663 12.5060764,15.9795322 C12.5060764,14.051398 14.069947,12.4876873 15.9979212,12.4876873 Z M21.5937957,9.12696453 C20.8998081,9.12696453 20.3371025,9.68951023 20.3371025,10.3836577 C20.3371025,11.0776453 20.8998081,11.6403509 21.5937957,11.6403509 C22.2879432,11.6403509 22.8506487,11.0776453 22.8506487,10.3836577 C22.8506487,9.68951023 22.2879432,9.12696453 21.5937957,9.12696453 Z" id="Combined-Shape"></path>
        </g>
    </g>
</svg>