<?xml version="1.0" encoding="UTF-8"?>
<svg width="21px" height="21px" viewBox="0 0 21 21" version="1.1" xmlns="http://www.w3.org/2000/svg" xmlns:xlink="http://www.w3.org/1999/xlink">
    <title>base/icon/instagram</title>
    <g id="base/icon/instagram" stroke="none" stroke-width="1" fill="none" fill-rule="evenodd">
        <path d="M11.0777173,-0.00126405347 C13.4104517,0.000509171638 13.7928338,0.0146919358 14.8369793,0.0642572118 C15.9531085,0.11346757 16.7164299,0.293958966 17.3851777,0.552513651 C18.0827785,0.815075725 18.7188263,1.22959675 19.2441107,1.76305616 C19.7817377,2.28834055 20.1920911,2.92022068 20.4588208,3.62599646 C20.7173755,4.29089715 20.8978669,5.05822595 20.9470772,6.17435512 C20.9892575,7.13460953 20.9983452,7.53405638 21.0000809,9.42457102 L21,11.3383671 C20.9973872,13.4407968 20.98284,13.8325467 20.9389022,14.8328117 C20.8896919,15.9489409 20.7090402,16.7122623 20.4506458,17.3811704 C19.9048437,18.7927219 18.7887145,19.9088511 17.3770027,20.4546532 C16.7122623,20.7132079 15.9449335,20.8936993 14.8288043,20.9429096 C13.8285393,20.9869905 13.4367894,21.0014252 11.3343597,21.0040123 L9.66478744,21.0040123 C7.56233194,21.0014252 7.17046967,20.9869905 6.17034774,20.9429096 C5.05405831,20.8936993 4.29089715,20.7132079 3.62198907,20.4546532 C2.92438831,20.1920911 2.28834055,19.7775701 1.76305616,19.2441107 C1.22959675,18.7188263 0.815235968,18.0869461 0.548506263,17.3811704 C0.289951578,16.7162697 0.109299939,15.9489409 0.0600895807,14.8328117 C0.0143942479,13.7925361 0.000487908214,13.4104305 -0.00126557228,11.0777158 L-0.00126405347,9.9294495 C0.000509171638,7.59671509 0.0146919358,7.21433304 0.0642572118,6.17018749 C0.11346757,5.05405831 0.293958966,4.29089715 0.552513651,3.62198907 C0.815235968,2.92438831 1.22959675,2.28834055 1.76305616,1.76305616 C2.28834055,1.22542912 2.92022068,0.815075725 3.6261567,0.54834602 C4.29089715,0.289951578 5.05822595,0.109299939 6.17435512,0.0600895807 C7.21463073,0.0143942479 7.59673635,0.000487908213 9.92945102,-0.00126557228 L11.0777173,-0.00126405347 Z M10.5035834,5.1074363 C7.52451393,5.1074363 5.1074363,7.52435369 5.1074363,10.5035834 C5.1074363,13.4828131 7.52451393,15.8997305 10.5035834,15.8997305 C13.4828131,15.8997305 15.8997305,13.4828131 15.8997305,10.5035834 C15.8997305,7.52435369 13.4828131,5.1074363 10.5035834,5.1074363 Z M10.5035834,7.00323693 C12.436412,7.00323693 14.0039299,8.57075484 14.0039299,10.5035834 C14.0039299,12.436412 12.436412,14.0039299 10.5035834,14.0039299 C8.57091508,14.0039299 7.00323693,12.436412 7.00323693,10.5035834 C7.00323693,8.57075484 8.57091508,7.00323693 10.5035834,7.00323693 Z M16.1130822,3.63433172 C15.417405,3.63433172 14.8533294,4.19824707 14.8533294,4.89408459 C14.8533294,5.58976182 15.417405,6.15383745 16.1130822,6.15383745 C16.8089198,6.15383745 17.3729953,5.58976182 17.3729953,4.89408459 C17.3729953,4.19824707 16.8089198,3.63433172 16.1130822,3.63433172 Z" id="Combined-Shape" fill="#000000"></path>
    </g>
</svg>