<svg xmlns="http://www.w3.org/2000/svg" width="47" height="47" viewBox="0 0 47 47">
    <path fill-rule="evenodd" d="M24.867 8.746c2.682.005 3.257.028 4.635.093 1.603.071 2.7.33 3.66.702 1.003.377 1.916.972 2.67 1.739.773.754 1.363 1.662 1.746 2.676.371.955.63 2.057.701 3.66.062 1.42.074 1.987.076 4.915v2.308c-.003 3.192-.023 3.748-.088 5.215-.07 1.604-.33 2.7-.701 3.661-.784 2.028-2.387 3.631-4.415 4.415-.955.372-2.057.631-3.66.702-1.515.066-2.059.086-5.533.088h-1.373c-3.475-.002-4.018-.022-5.533-.088-1.603-.071-2.7-.33-3.66-.702-1.003-.377-1.916-.972-2.67-1.739-.767-.754-1.362-1.662-1.745-2.676-.372-.955-.631-2.057-.702-3.66-.06-1.373-.082-1.948-.087-4.63v-3.18c.005-2.681.027-3.257.093-4.634.07-1.604.33-2.7.701-3.66.378-1.003.973-1.917 1.74-2.671.754-.773 1.661-1.362 2.676-1.745.954-.371 2.057-.63 3.66-.702 1.373-.06 1.948-.082 4.63-.087h3.179zm-1.59 7.338c-4.28 0-7.752 3.472-7.752 7.752 0 4.28 3.473 7.751 7.752 7.751 4.28 0 7.752-3.472 7.752-7.751 0-4.28-3.472-7.752-7.752-7.752zm0 2.723c2.777 0 5.028 2.252 5.028 5.029 0 2.776-2.251 5.028-5.028 5.028-2.776 0-5.028-2.252-5.028-5.028 0-2.777 2.252-5.029 5.028-5.029zm8.058-4.84c-1 0-1.81.81-1.81 1.81s.81 1.81 1.81 1.81 1.81-.81 1.81-1.81-.81-1.81-1.81-1.81z"/>
</svg>
