<svg xmlns="http://www.w3.org/2000/svg" width="47" height="47" viewBox="0 0 47 47">
    <path d="M31.919 8.781H14.321c-3.47 0-6.285 2.814-6.285 6.285v17.598c0 3.47 2.814 6.285 6.285 6.285h17.598c3.472 0 6.285-2.814 6.285-6.285V15.066c0-3.47-2.813-6.285-6.285-6.285zM18.092 32.664h-3.771V18.837h3.771v13.827zm-1.885-15.42c-1.215 0-2.2-.994-2.2-2.218 0-1.225.985-2.218 2.2-2.218 1.214 0 2.2.993 2.2 2.218 0 1.224-.985 2.217-2.2 2.217zm16.969 15.42h-3.771V25.62c0-4.234-5.028-3.913-5.028 0v7.044h-3.771V18.837h3.771v2.219c1.755-3.251 8.799-3.491 8.799 3.112v8.496z"/>
</svg>
