<?xml version="1.0" encoding="UTF-8"?>
<svg width="124px" height="27px" viewBox="0 0 124 27" version="1.1" xmlns="http://www.w3.org/2000/svg" xmlns:xlink="http://www.w3.org/1999/xlink">
    <title>Logotipo</title>
    <defs>
        <polygon id="path-1" points="0.196254808 0.0751622596 6.29054567 0.0751622596 6.29054567 19.9367706 0.196254808 19.9367706"></polygon>
        <polygon id="path-3" points="0.128569111 0.0751622596 6.22285998 0.0751622596 6.22285998 19.9367706 0.128569111 19.9367706"></polygon>
    </defs>
    <g id="Symbols" stroke="none" stroke-width="1" fill="none" fill-rule="evenodd">
        <g id="mobile/base/logo/yellowme">
            <g id="Logotipo" transform="translate(0.000000, -0.000000)">
                <path d="M10.974503,6.41885697 L7.09164844,16.1588149 L3.30755589,6.41885697 L1.98317308e-05,6.41885697 L5.50451502,19.993875 C5.3105607,20.4698365 4.6471893,21.9810144 4.52562079,22.2652031 C4.4042506,22.5489952 4.27871575,22.8423065 4.06453305,23.0614471 C3.7958131,23.3367115 3.4245631,23.4495541 3.16080108,23.495762 C2.76515805,23.5645781 2.30288041,23.570131 1.70535036,23.5094459 L1.59330108,23.4987368 L1.5568107,26.2172704 L1.64843329,26.2289712 C1.92726743,26.2650649 2.31795252,26.3009603 2.76396815,26.3009603 C3.94792248,26.3009603 5.52434675,26.0473125 6.44929868,24.8661346 C6.78822296,24.4343978 7.02422055,23.9378113 7.22888401,23.4654195 C7.49324099,22.8553954 14.1071232,6.41885697 14.1071232,6.41885697 L10.974503,6.41885697 Z" id="Fill-1" fill="#000000"></path>
                <path d="M112.651152,11.9305907 C113.065635,10.4725619 114.103628,8.80154026 116.688496,8.80154026 C118.401759,8.80154026 119.890527,10.0572855 120.428959,11.9411016 L112.651152,11.9305907 Z M123.654391,13.2045811 C123.654391,9.26461118 120.449187,6.05901022 116.50882,6.05901022 C112.568454,6.05901022 109.363249,9.26461118 109.363249,13.2045811 C109.363249,17.1445511 112.568454,20.350152 116.50882,20.350152 C119.884974,20.350152 122.424824,18.7249417 123.441398,15.6742266 L120.319686,15.6742266 L120.290533,15.734515 C119.720569,16.8801941 118.38391,17.7119369 116.963959,17.805146 C116.708724,17.8204165 116.457853,17.8148636 116.210948,17.7861076 C114.854854,17.6280487 113.614578,16.7717145 112.974211,15.5506749 C112.731272,15.087604 112.600184,14.608271 112.592847,14.1582891 L123.654391,14.1582891 L123.654391,13.2045811 Z" id="Fill-3" fill="#000000"></path>
                <g id="Group-7" transform="translate(31.929087, 0.123155)">
                    <mask id="mask-2" fill="white">
                        <use xlink:href="#path-1"></use>
                    </mask>
                    <g id="Clip-6"></g>
                    <path d="M5.77690385,17.2171947 C5.1529976,17.2479339 4.56578005,17.2758966 4.06820192,16.9074231 C3.47126683,16.4653738 3.34573197,15.7319964 3.34573197,15.1943582 L3.34573197,0.0750432692 L0.196254808,0.0750432692 L0.196254808,15.3510288 C0.196254808,16.3168341 0.378508413,17.17178 0.73746274,17.8920685 C1.01530529,18.4503317 1.40380889,18.9177656 1.86093029,19.2439976 C2.46599639,19.6759327 3.2509363,19.9087572 4.19413341,19.9367706 C4.21158534,19.9371166 4.752,19.9351334 5.06573798,19.9325553 C5.53575,19.9285889 6.23759495,19.9240276 6.29054567,19.9289856 L6.29054567,17.2003377 L6.1854375,17.201726 C6.0501851,17.2039075 5.91374279,17.2106502 5.77690385,17.2171947" id="Fill-5" fill="#000000" mask="url(#mask-2)"></path>
                </g>
                <g id="Group-10" transform="translate(40.456731, 0.123155)">
                    <mask id="mask-4" fill="white">
                        <use xlink:href="#path-3"></use>
                    </mask>
                    <g id="Clip-9"></g>
                    <path d="M5.70882151,17.2171947 C5.08709675,17.2479339 4.49809435,17.2758966 4.00051623,16.9074231 C3.40338281,16.4659688 3.27804627,15.7319964 3.27804627,15.1943582 L3.27804627,0.0750432692 L0.128569111,0.0750432692 L0.128569111,15.3510288 C0.128569111,16.3168341 0.310822716,17.17178 0.669777043,17.8920685 C0.947619591,18.4503317 1.3361232,18.9177656 1.79304627,19.2439976 C2.3983107,19.6759327 3.1832506,19.9087572 4.12644772,19.9367706 C4.14370132,19.9371166 4.68411599,19.9351334 4.99805228,19.9325553 C5.46786599,19.9285889 6.17030589,19.9240276 6.22285998,19.9289856 L6.22285998,17.2003377 C6.22285998,17.2003377 5.84605709,17.2106502 5.70882151,17.2171947" id="Fill-8" fill="#000000" mask="url(#mask-4)"></path>
                </g>
                <path d="M59.7214327,13.2580078 C59.7214327,15.648723 57.8189748,17.5934225 55.4800204,17.5934225 C53.1410661,17.5934225 51.2384099,15.648723 51.2384099,13.2580078 C51.2384099,10.8672927 53.1410661,8.92219651 55.4800204,8.92219651 C57.8189748,8.92219651 59.7214327,10.8672927 59.7214327,13.2580078 M55.4800204,6.05908954 C51.3744555,6.05908954 48.0343954,9.2646905 48.0343954,13.2044621 C48.0343954,17.1444321 51.3744555,20.3500331 55.4800204,20.3500331 C59.5851887,20.3500331 62.9250505,17.1444321 62.9250505,13.2044621 C62.9250505,9.2646905 59.5851887,6.05908954 55.4800204,6.05908954" id="Fill-11" fill="#000000"></path>
                <polygon id="Fill-13" fill="#000000" points="72.7269032 6.41770673 75.8835198 6.41770673 78.7912482 15.7013365 81.5349681 6.41770673 84.8000643 6.41770673 80.493009 20.0321899 77.3233035 20.0321899 74.3045174 10.3388365 71.286128 20.0321899 68.1162242 20.0321899 63.8099621 6.41770673 67.074265 6.41770673 69.8183816 15.7013365"></polygon>
                <path d="M106.576713,8.85250781 C106.186424,7.99557873 105.600397,7.29611358 104.880505,6.82927464 C104.134832,6.34597536 103.189255,6.08042849 102.146502,6.06139002 C102.116556,6.06020012 99.3534014,5.95985156 97.7974038,8.48621575 C97.4128666,7.78913041 96.8954567,7.21916647 96.2947536,6.82927464 C94.9233894,5.94041647 93.080625,5.81527825 91.7108474,6.51890805 C91.0292308,6.8677482 90.4138522,7.44465325 89.9158774,8.19845733 L89.9158774,6.41776623 L86.7723498,6.41776623 L86.7723498,20.0322494 L89.8738341,20.0322494 C89.8738341,20.0322494 89.8601502,13.9476761 89.8738341,13.1341785 C89.8948558,11.8536436 90.1669471,10.8624537 90.7053786,10.1028984 C91.0331971,9.63982752 91.4589844,9.29892007 91.9367308,9.11726142 C92.3746154,8.95007993 92.9138401,8.89633594 93.4141947,8.96634195 C94.1160397,9.0655006 94.7169411,9.54304868 95.0211599,10.2435054 C95.2811538,10.8408371 95.3160577,11.5024237 95.3176442,12.0120992 C95.320024,12.6187518 95.3192308,13.2252061 95.3184375,13.8314621 L95.3176442,20.0322494 L98.4677163,20.0322494 L98.4677163,12.9931749 C98.5065865,11.7747133 98.7762981,10.8291364 99.2903365,10.1028984 C99.6189483,9.63982752 100.044736,9.29892007 100.522482,9.11726142 C100.961358,8.95007993 101.499591,8.89633594 101.999946,8.96634195 C102.701989,9.06589724 103.302692,9.54304868 103.607109,10.2435054 C103.866112,10.8380607 103.901809,11.5008371 103.903395,12.0120992 C103.904982,12.6187518 103.903395,20.0322494 103.903395,20.0322494 L107.053468,20.0322494 C107.053468,20.0322494 107.055252,11.7665823 107.056839,11.6400559 C107.063383,11.0296352 107.070523,10.3987879 106.913456,9.79867969 C106.827782,9.47185276 106.714345,9.15335517 106.576713,8.85250781" id="Fill-15" fill="#000000"></path>
                <path d="M18.2806713,11.9305907 C18.6951544,10.4725619 19.7331472,8.80154026 22.3182133,8.80154026 C24.0312782,8.80154026 25.5200463,10.0572855 26.0584778,11.9411016 L18.2806713,11.9305907 Z M29.2839105,13.2045811 C29.2839105,9.26461118 26.0787061,6.05901022 22.1385379,6.05901022 C18.1981713,6.05901022 14.9929669,9.26461118 14.9929669,13.2045811 C14.9929669,17.1445511 18.1981713,20.350152 22.1385379,20.350152 C25.5144934,20.350152 28.0543431,18.7249417 29.0709177,15.6742266 L25.9492049,15.6742266 L25.9200523,15.734515 C25.3500883,16.8801941 24.0134297,17.7119369 22.5934778,17.805146 C22.3384417,17.8204165 22.087372,17.8148636 21.8404669,17.7861076 C20.4843732,17.6280487 19.2440968,16.7717145 18.6037302,15.5506749 C18.3607915,15.087604 18.2297037,14.608271 18.222366,14.1582891 L29.2839105,14.1582891 L29.2839105,13.2045811 Z" id="Fill-17" fill="#000000"></path>
            </g>
        </g>
    </g>
</svg>