<?xml version="1.0" encoding="UTF-8"?>
<svg width="20px" height="20px" viewBox="0 0 20 20" version="1.1" xmlns="http://www.w3.org/2000/svg" xmlns:xlink="http://www.w3.org/1999/xlink">
    <title>base/icon/medium</title>
    <g id="base/icon/medium" stroke="none" stroke-width="1" fill="none" fill-rule="evenodd">
        <path d="M20,-1.77635684e-14 L20,20 L-7.63833441e-14,20 L-7.63833441e-14,-1.77635684e-14 L20,-1.77635684e-14 Z M7.27104401,4.51282052 L3.38911836,4.51282052 L3.38911836,4.73857007 L4.63933596,6.24983795 C4.76207064,6.3608442 4.82475118,6.52386227 4.80811534,6.68879542 L4.80811534,12.627263 C4.84453399,12.8414856 4.7772351,13.0603155 4.62683379,13.2167202 L4.62683379,13.2167202 L3.22033898,14.9286544 L3.22033898,15.1544039 L7.20853313,15.1544039 L7.20853313,14.9286544 L5.80203833,13.2167202 C5.65053393,13.0605744 5.57906779,12.8431866 5.60825459,12.627263 L5.60825459,12.627263 L5.60825459,7.49146053 L9.10886385,15.1544039 L9.5151846,15.1544039 L12.5219579,7.49146053 L12.521466,13.6707451 C12.519006,13.7748233 12.5042465,13.811403 12.4156895,13.9002397 L12.4156895,13.9002397 L11.3342512,14.9537377 L11.3342512,15.1794872 L16.5851651,15.1794872 L16.5851651,14.9537377 L15.5412334,13.925323 C15.4490795,13.8548361 15.4033663,13.738986 15.4224628,13.6243236 L15.4224628,13.6243236 L15.4224628,6.06798414 C15.4033663,5.95332166 15.4490795,5.83747156 15.5412334,5.76698473 L15.5412334,5.76698473 L16.6101695,4.73857007 L16.6101695,4.51282052 L12.9095255,4.51282052 L10.2715662,11.1159951 L7.27104401,4.51282052 Z" id="Combined-Shape" fill="#000000"></path>
    </g>
</svg>