<svg xmlns="http://www.w3.org/2000/svg" width="47" height="47" viewBox="0 0 47 47">
    <path fill-rule="evenodd" d="M37.36 9.705v28.32H9.04V9.705h28.32zm-18.024 6.39h-5.497v.32l1.77 2.14c.174.157.263.388.24.621v8.41c.05.303-.044.612-.257.834L13.6 30.844v.32h5.647v-.32l-1.991-2.424c-.215-.221-.316-.529-.275-.835v-7.272l4.957 10.85h.576l4.257-10.85v8.649c0 .23 0 .275-.15.426l-1.532 1.491v.32h7.436v-.32l-1.479-1.456c-.13-.1-.195-.264-.168-.426v-10.7c-.027-.162.038-.326.168-.426l1.514-1.456v-.32h-5.24l-3.735 9.35-4.25-9.35z"/>
</svg>
