<?xml version="1.0" encoding="UTF-8"?>
<svg width="20px" height="20px" viewBox="0 0 20 20" version="1.1" xmlns="http://www.w3.org/2000/svg" xmlns:xlink="http://www.w3.org/1999/xlink">
    <title>Combined Shape</title>
    <g id="Symbols" stroke="none" stroke-width="1" fill="none" fill-rule="evenodd">
        <g id="base/icon/medium" transform="translate(-6.000000, -6.000000)" fill="#000000">
            <path d="M25.8333333,6.16666667 L25.8333333,25.8333333 L6.16666667,25.8333333 L6.16666667,6.16666667 L25.8333333,6.16666667 Z M13.3165266,10.6042735 L9.49929972,10.6042735 L9.49929972,10.8262606 L10.7286804,12.3123406 C10.8493695,12.4214968 10.9110053,12.5817979 10.8946468,12.7439822 L10.8946468,12.7439822 L10.8946468,18.5834753 C10.9304584,18.7941275 10.8642812,19.0093102 10.7163866,19.1631082 L10.7163866,19.1631082 L9.33333333,20.8465101 L9.33333333,21.0684972 L13.2550576,21.0684972 L13.2550576,20.8465101 L11.8720044,19.1631082 C11.723025,19.0095648 11.65275,18.7958001 11.6814504,18.5834753 L11.6814504,18.5834753 L11.6814504,13.5332695 L15.1237161,21.0684972 L15.5232649,21.0684972 L18.4799253,13.5332695 L18.4799253,19.539253 C18.4799253,19.6995769 18.4799253,19.7304084 18.375428,19.8352357 L18.375428,19.8352357 L17.3120137,20.8711754 L17.3120137,21.0931624 L22.4754124,21.0931624 L22.4754124,20.8711754 L21.4488795,19.8599009 C21.3582615,19.7905888 21.3133102,19.6766696 21.3320885,19.5639182 L21.3320885,19.5639182 L21.3320885,12.1335177 C21.3133102,12.0207663 21.3582615,11.906847 21.4488795,11.837535 L21.4488795,11.837535 L22.5,10.8262606 L22.5,10.6042735 L18.8610334,10.6042735 L16.2670401,17.0973952 L13.3165266,10.6042735 Z" id="Combined-Shape"></path>
        </g>
    </g>
</svg>