<?xml version="1.0" encoding="UTF-8"?>
<svg width="22px" height="18px" viewBox="0 0 22 18" version="1.1" xmlns="http://www.w3.org/2000/svg" xmlns:xlink="http://www.w3.org/1999/xlink">
    <title>Path</title>
    <g id="Symbols" stroke="none" stroke-width="1" fill="none" fill-rule="evenodd">
        <g id="base/icon/twitter" transform="translate(-5.000000, -7.000000)" fill="#000000">
            <path d="M27,9.13092308 C26.181875,9.49230769 25.310125,9.73184615 24.40125,9.84815385 C25.33625,9.286 26.049875,8.40261538 26.385375,7.33784615 C25.513625,7.86123077 24.551125,8.23092308 23.525375,8.43723077 C22.697625,7.54969231 21.517875,7 20.230875,7 C17.733875,7 15.723625,9.04092308 15.723625,11.5429231 C15.723625,11.9029231 15.753875,12.2490769 15.828125,12.5786154 C12.0785,12.3944615 8.760625,10.5847692 6.53175,7.828 C6.142625,8.50784615 5.914375,9.286 5.914375,10.1236923 C5.914375,11.6966154 6.71875,13.0909231 7.91775,13.8981538 C7.193125,13.8843077 6.48225,13.6724615 5.88,13.3387692 C5.88,13.3526154 5.88,13.3706154 5.88,13.3886154 C5.88,15.5956923 7.443375,17.4289231 9.4935,17.8512308 C9.126375,17.9523077 8.72625,18.0007692 8.311,18.0007692 C8.02225,18.0007692 7.73075,17.9841538 7.457125,17.9232308 C8.0415,19.7218462 9.69975,21.0441538 11.6715,21.0870769 C10.137,22.2958462 8.188625,23.0241538 6.079375,23.0241538 C5.7095,23.0241538 5.35475,23.0075385 5,22.9618462 C6.997875,24.2592308 9.365625,25 11.919,25 C20.2185,25 24.756,18.0769231 24.756,12.076 C24.756,11.8752308 24.749125,11.6813846 24.7395,11.4889231 C25.634625,10.8492308 26.38675,10.0503077 27,9.13092308 Z" id="Path"></path>
        </g>
    </g>
</svg>